# xmcd CD database file
#
# Track frame offsets:
#	150
#	13636
#	23646
#	37284
#	48684
#	64168
#	76552
#	88473
#	98898
#	110818
#
# Disc length: 1616 seconds
#
# Revision: 0
# Processed by: cddbd v1.5.2PL0 Copyright (c) Steve Scherf et al.
# Submitted via: CDex 1.70beta2
#
DISCID=83064e0a
DTITLE=Loretta Lynn - Loretta Lynn American Music Legends
DYEAR=2005
DGENRE=Country
TTITLE0=Coal Miner's Daughter
TTITLE1=You Ain't Woman Enough
TTITLE2=When the Tingle Becomes a Chill
TTITLE3=Louisiana Woman, Mississippi Man
TTITLE4=Mad Mrs. Jesse Brown
TTITLE5=I Fall To Pieces
TTITLE6=One's On The Way
TTITLE7=You're Looking at Country
TTITLE8=After the Fire is Gone
TTITLE9=These Boots Are Made for Walkin'
EXTD=YEAR: 2005
EXTT0=
EXTT1=
EXTT2=
EXTT3=
EXTT4=
EXTT5=
EXTT6=
EXTT7=
EXTT8=
EXTT9=
PLAYORDER=
